# xmcd
#
# Track frame offsets: 
#        150
#        17410
#        41575
#        60837
#        77232
#
# Disc length: 1254 seconds
#
# Revision: 1
# Processed by: cddbd v1.5.1PL0 Copyright (c) Steve Scherf et al.
# Submitted via: ExactAudioCopy v0.95a5
#
DISCID=2d04e405
DTITLE=CDB - Hook Me Up (single)
DYEAR=1994
DGENRE=R&B
TTITLE0=Hook Me Up
TTITLE1=2 Nite I'm Yours
TTITLE2=Hook Me Up (Wicked Mix)
TTITLE3=Hook Me Up (Swing Mix)
TTITLE4=Hook Me Up (Instrumental)
EXTD=
EXTT0=
EXTT1=
EXTT2=
EXTT3=
EXTT4=
PLAYORDER=
